<svg width="336" height="521" viewBox="0 0 336 521" fill="none" xmlns="http://www.w3.org/2000/svg">
<path d="M222.598 184.047C222.598 184.047 241.376 224.126 241.376 226.242C241.376 228.358 224.714 237.421 221.54 239.325C219.078 240.727 216.541 241.993 213.94 243.116L215.845 261.683C215.845 261.683 244.533 255.141 256.558 248.6C268.583 242.058 268.16 234.67 265.374 223.703C262.588 212.735 244.057 170.347 244.057 170.347L222.598 184.047Z" fill="#E1E1E6"/>
<g style="mix-blend-mode:multiply" opacity="0.5">
<path d="M256.505 248.6C268.53 242.058 268.107 234.67 265.321 223.703C262.535 212.735 244.004 170.347 244.004 170.347L241.006 172.251L240.054 174.014C240.054 174.014 257.351 216.473 258.392 230.614C259.097 240.118 239.966 251.967 227.323 258.738C236.704 256.252 249.47 252.426 256.505 248.6Z" fill="#BBBBBF"/>
</g>
<path d="M222.598 184.047C222.598 184.047 241.376 224.126 241.376 226.242C241.376 228.358 224.714 237.421 221.54 239.325C219.078 240.727 216.541 241.993 213.94 243.116L215.845 261.683C215.845 261.683 244.533 255.141 256.558 248.6C268.583 242.058 268.16 234.67 265.374 223.703C262.588 212.735 244.057 170.347 244.057 170.347L222.598 184.047Z" stroke="#263238" stroke-linecap="round" stroke-linejoin="round"/>
<path d="M87.1104 175.196C87.1104 175.196 73.41 225.395 73.0044 234.264C72.5989 243.134 100.211 260.625 101.216 261.683C102.221 262.741 99.647 231.179 99.647 231.179L109.01 185.334L87.1104 175.196Z" fill="#E1E1E6"/>
<g style="mix-blend-mode:multiply" opacity="0.5">
<path d="M93.3875 179.304L93.0878 177.946L87.1104 175.196C87.1104 175.196 73.41 225.395 73.0044 234.264C72.5989 243.134 100.211 260.625 101.216 261.683C101.622 262.106 101.463 257.381 101.128 251.544C92.9114 244.579 81.1153 234.776 79.74 230.65" fill="#BBBBBF"/>
</g>
<path d="M87.1104 175.196C87.1104 175.196 73.41 225.395 73.0044 234.264C72.5989 243.134 100.211 260.625 101.216 261.683C102.221 262.741 99.647 231.179 99.647 231.179L109.01 185.334L87.1104 175.196Z" stroke="#263238" stroke-linecap="round" stroke-linejoin="round"/>
<path d="M151.451 124.767C151.451 124.767 146.161 128.576 135.846 128.999C125.531 129.422 125.038 121.946 112.219 121.946C96.6847 121.946 77.2009 171.087 77.2009 171.087C77.2009 171.087 86.8987 180.591 96.4026 184.594C101.66 186.897 107.188 188.526 112.854 189.443L114.335 221.728H218.966L220.217 189.443L252.926 168.231C252.926 168.231 236.88 139.543 229.087 128.787C221.293 118.031 208.192 122.034 204.19 124.767C200.187 127.5 188.32 128.152 183.948 127.518C178.243 126.255 172.605 124.707 167.056 122.88C167.056 122.88 160.32 117.273 151.451 124.767Z" fill="#EBA417" stroke="#263238" stroke-linecap="round" stroke-linejoin="round"/>
<path fill-rule="evenodd" clip-rule="evenodd" d="M113.5 189.5L114.453 136L102 186.3L113.5 189.5Z" fill="#BC8312"/>
<path fill-rule="evenodd" clip-rule="evenodd" d="M206.192 221.862V159C206.192 143.05 192.708 138.107 174.723 131.514C168.465 129.22 161.662 126.727 154.692 123.5L154 123.363C161.833 118.258 167.547 123.015 167.547 123.015C173.097 124.842 178.734 126.39 184.439 127.652C188.812 128.287 200.678 127.634 204.681 124.901C208.684 122.168 221.784 118.166 229.578 128.922C237.371 139.677 253.417 168.365 253.417 168.365L220.709 189.577L219.457 221.862H206.192Z" fill="#BC8312"/>
<path d="M113.912 136.158L113.489 189.743" stroke="#263238" stroke-width="0.5" stroke-linecap="round" stroke-linejoin="round"/>
<path d="M117.703 141.024C117.703 141.024 119.184 167.173 124.756 181.737" stroke="#263238" stroke-width="0.5" stroke-linecap="round" stroke-linejoin="round"/>
<path d="M125.725 183.836C126.929 187.39 128.408 190.845 130.151 194.168" stroke="#263238" stroke-width="0.5" stroke-linecap="round" stroke-linejoin="round"/>
<path d="M121.07 138.062C123.072 147.57 125.898 156.886 129.516 165.903" stroke="#263238" stroke-width="0.5" stroke-linecap="round" stroke-linejoin="round"/>
<path d="M212.019 142.699C212.019 142.699 206.958 163.382 202.515 172.674" stroke="#263238" stroke-width="0.5" stroke-linecap="round" stroke-linejoin="round"/>
<path d="M220.217 189.531L220.006 147.76" stroke="#263238" stroke-width="0.5" stroke-linecap="round" stroke-linejoin="round"/>
<path d="M217.908 148.606C217.908 148.606 214.099 175.055 204.824 188.896" stroke="#263238" stroke-width="0.5" stroke-linecap="round" stroke-linejoin="round"/>
<path d="M213.27 183.624C213.27 183.624 209.039 191.647 206.094 195.861" stroke="#263238" stroke-width="0.5" stroke-linecap="round" stroke-linejoin="round"/>
<path d="M145.544 127.941C145.544 127.941 148.506 146.085 152.721 155.359C156.935 164.634 164.323 166.538 170.653 163.805C176.983 161.072 181.62 147.548 181.232 130.304" stroke="#263238" stroke-width="0.5" stroke-linecap="round" stroke-linejoin="round"/>
<path d="M130.574 89.9606C130.574 89.9606 126.554 83.0135 123.398 86.5928C120.242 90.1722 125.937 98.4066 129.093 101.14C132.249 103.873 134.577 102.198 134.383 99.2529C134.189 96.3083 130.574 89.9606 130.574 89.9606Z" fill="#E1E1E6" stroke="#263238" stroke-linecap="round" stroke-linejoin="round"/>
<path d="M130.574 89.9606C130.574 89.9606 126.554 83.0135 123.398 86.5928C120.242 90.1722 125.937 98.4066 129.093 101.14C132.249 103.873 134.577 102.198 134.383 99.2529C134.189 96.3083 130.574 89.9606 130.574 89.9606Z" stroke="#263238" stroke-linecap="round" stroke-linejoin="round"/>
<path d="M194.386 89.9606C194.386 89.9606 198.389 83.0135 201.562 86.5928C204.736 90.1722 199.023 98.4066 195.867 101.14C192.711 103.873 190.366 102.198 190.577 99.2529C190.789 96.3083 194.386 89.9606 194.386 89.9606Z" fill="#E1E1E6" stroke="#263238" stroke-linecap="round" stroke-linejoin="round"/>
<path d="M194.386 89.9606C194.386 89.9606 198.389 83.0135 201.562 86.5928C204.736 90.1722 199.023 98.4066 195.867 101.14C192.711 103.873 190.366 102.198 190.577 99.2529C190.789 96.3083 194.386 89.9606 194.386 89.9606Z" stroke="#263238" stroke-linecap="round" stroke-linejoin="round"/>
<path d="M149.547 123.304C151.538 132.307 154.076 141.181 157.146 149.876C160.955 159.362 168.114 159.362 171.076 153.243C174.038 147.125 175.925 124.326 175.925 124.326C175.925 124.326 156.088 127.094 149.547 123.304Z" fill="#E1E1E6" stroke="#263238" stroke-linecap="round" stroke-linejoin="round"/>
<path d="M130.997 92.2881C130.997 92.2881 136.481 111.684 146.867 123.092C157.252 134.5 160.973 137.198 166.492 136.369C172.01 135.54 177.882 128.364 186.099 113.447C194.315 98.53 194.915 87.0866 195.603 86.0286C196.29 84.9707 193.839 63.8823 182.096 54.8016C170.353 45.7209 157.199 41.736 145.809 51.6454C134.418 61.5548 127.189 77.7237 130.997 92.2881Z" fill="#E1E1E6"/>
<path d="M130.997 92.2881C130.997 92.2881 136.481 111.684 146.867 123.092C157.252 134.5 160.973 137.198 166.492 136.369C172.01 135.54 177.882 128.364 186.099 113.447C194.315 98.53 194.915 87.0866 195.603 86.0286C196.29 84.9707 193.839 63.8823 182.096 54.8016C170.353 45.7209 157.199 41.736 145.809 51.6454C134.418 61.5548 127.189 77.7238 130.997 92.2881Z" stroke="#263238" stroke-linecap="round" stroke-linejoin="round"/>
<path d="M166.439 102.409C165.785 106.528 165.431 110.688 165.381 114.858C165.592 119.072 166.862 120.341 164.957 120.764C163.053 121.188 160.955 118.225 160.955 118.225" stroke="#263238" stroke-linecap="round" stroke-linejoin="round"/>
<path d="M145.333 105.795C146.555 106.677 148.015 107.17 149.523 107.208C151.03 107.246 152.514 106.827 153.778 106.006" stroke="#263238" stroke-linecap="round" stroke-linejoin="round"/>
<path d="M172.134 105.795C173.353 106.676 174.811 107.168 176.315 107.205C177.819 107.243 179.3 106.825 180.562 106.006" stroke="#263238" stroke-linecap="round" stroke-linejoin="round"/>
<path d="M158.804 98.6887C158.804 98.6887 154.784 88.7617 141.506 93.399" stroke="#263238" stroke-linecap="round" stroke-linejoin="round"/>
<path d="M169.859 97.472C169.859 97.472 173.227 87.7566 185.252 93.4518" stroke="#263238" stroke-linecap="round" stroke-linejoin="round"/>
<path d="M161.36 106.517C161.36 111.948 155.136 116.339 147.448 116.339C139.761 116.339 133.519 111.948 133.519 106.517C133.519 101.087 139.338 98.8297 147.025 98.8297C154.713 98.8297 161.36 101.104 161.36 106.517Z" stroke="#263238" stroke-linecap="round" stroke-linejoin="round"/>
<path d="M193.434 106.517C193.434 111.948 187.192 116.339 179.504 116.339C171.816 116.339 165.592 111.948 165.592 106.517C165.592 101.087 171.393 98.8297 179.081 98.8297C186.769 98.8297 193.434 101.104 193.434 106.517Z" stroke="#263238" stroke-linecap="round" stroke-linejoin="round"/>
<path d="M180.862 36.6049C182.96 36.1641 187.457 34.4361 190.489 27.4008C190.536 27.2943 190.561 27.1797 190.563 27.0635C190.566 26.9472 190.545 26.8317 190.502 26.7235C190.46 26.6154 190.396 26.5167 190.315 26.4332C190.234 26.3497 190.138 26.2831 190.031 26.237C189.815 26.1475 189.573 26.1453 189.356 26.2308C189.139 26.3164 188.964 26.483 188.867 26.6955C186.081 33.149 182.096 34.5772 180.439 34.8946C183.405 31.305 185.043 26.8026 185.076 22.1463C185.076 9.90943 173.738 0 159.756 0C145.773 0 134.436 9.90943 134.436 22.1463C134.445 26.6149 135.933 30.9547 138.668 34.489C136.005 34.348 131.509 35.4765 125.814 42.1239C125.651 42.2916 125.56 42.5161 125.56 42.7498C125.56 42.9835 125.651 43.208 125.814 43.3758C125.977 43.5116 126.183 43.5864 126.395 43.5874C126.524 43.5875 126.65 43.5591 126.766 43.5042C126.882 43.4493 126.984 43.3693 127.065 43.27C134.348 34.7888 139.161 36.217 140.131 36.6049C138.485 37.5105 136.942 38.5924 135.529 39.8317C127.4 47.1491 122.446 60.9906 123.081 72.5222C123.794 80.1704 126.567 87.4824 131.103 93.6811C137.007 89.4559 141.903 83.9763 145.438 77.6356C148.073 72.978 150.429 68.1676 152.491 63.2299C152.491 68.3962 153.161 74.6381 155.877 79.0991C157.836 82.6227 160.705 85.5553 164.186 87.5901C167.666 89.6249 171.629 90.6872 175.66 90.6659C177.052 90.6859 178.442 90.5499 179.804 90.2604C179.924 90.2305 180.036 90.1758 180.133 90.0998C180.23 90.0239 180.31 89.9284 180.368 89.8196C187.174 91.2654 193.945 91.142 194.986 89.6962C196.661 87.3863 199.041 80.1747 199.834 71.3584C201.28 56.4061 191.865 43.4287 180.862 36.6049ZM157.517 78.0235C154.096 72.434 154.202 63.318 154.607 58.0812L154.837 57.4817C154.999 62.8678 156.372 68.1481 158.854 72.9312C161.335 77.7143 164.862 81.8773 169.172 85.1117C171.553 86.7573 174.193 87.9912 176.983 88.7616C172.663 89.0614 163.776 88.2327 157.517 78.0235Z" fill="#263238"/>
<path d="M157.816 50.2701C157.816 50.2701 156.371 60.9553 169.947 71.429C183.524 81.9026 196.396 77.7766 196.396 77.7766" stroke="#E1E1E6" stroke-width="0.5" stroke-linecap="round" stroke-linejoin="round"/>
<path d="M159.809 46.7436C159.809 46.7436 174.109 67.5675 193.857 62.1367" stroke="#E1E1E6" stroke-width="0.5" stroke-linecap="round" stroke-linejoin="round"/>
<path d="M152.738 39.8141C150.483 38.669 147.957 38.1654 145.435 38.3582C142.913 38.551 140.493 39.4327 138.438 40.9073C130.839 45.9678 127.03 57.9225 127.03 57.9225" stroke="#E1E1E6" stroke-width="0.5" stroke-linecap="round" stroke-linejoin="round"/>
<path d="M153.109 45.6151C153.109 45.6151 146.955 43.9752 143.146 47.7838C141.29 49.466 139.702 51.4223 138.438 53.5849" stroke="#E1E1E6" stroke-width="0.5" stroke-linecap="round" stroke-linejoin="round"/>
<path d="M23.9263 269.854L23.0258 461.271C23.0258 461.874 23.3046 462.453 23.8009 462.879C24.2972 463.305 24.9704 463.545 25.6723 463.545C26.3568 463.545 27.0144 463.316 27.5052 462.906C27.996 462.496 28.2813 461.938 28.3005 461.35L34.6596 270.123L23.9263 269.854Z" fill="#E1E1E6" stroke="#263238" stroke-linecap="round" stroke-linejoin="round"/>
<path d="M10.062 314.308L9.27673 512.077C9.27451 512.376 9.33522 512.672 9.45534 512.949C9.57547 513.225 9.75262 513.477 9.97647 513.688C10.2003 513.9 10.4664 514.067 10.7593 514.18C11.0522 514.294 11.3661 514.351 11.6827 514.349C12.3038 514.35 12.901 514.123 13.3495 513.717C13.7979 513.311 14.0628 512.757 14.0886 512.171L19.8529 314.56L10.062 314.308Z" fill="#E1E1E6" stroke="#263238" stroke-linecap="round" stroke-linejoin="round"/>
<path d="M311.994 269.854L312.814 461.271C312.816 461.569 312.756 461.865 312.637 462.14C312.517 462.416 312.341 462.667 312.119 462.878C311.897 463.089 311.632 463.257 311.341 463.372C311.049 463.486 310.737 463.545 310.421 463.545C309.796 463.545 309.195 463.317 308.746 462.907C308.296 462.498 308.033 461.939 308.011 461.35L302.238 270.123L311.994 269.854Z" fill="#E1E1E6" stroke="#263238" stroke-linecap="round" stroke-linejoin="round"/>
<path d="M325.744 314.308L326.563 512.077C326.565 512.376 326.504 512.672 326.384 512.949C326.264 513.225 326.087 513.477 325.863 513.688C325.639 513.9 325.373 514.067 325.08 514.18C324.787 514.294 324.474 514.351 324.157 514.349C323.538 514.349 322.942 514.123 322.496 513.716C322.051 513.31 321.789 512.756 321.768 512.171L315.987 314.56L325.744 314.308Z" fill="#E1E1E6" stroke="#263238" stroke-linecap="round" stroke-linejoin="round"/>
<path d="M108.106 322.775L107.646 497.66C107.596 498.097 107.718 498.535 107.987 498.884C108.256 499.233 108.65 499.465 109.088 499.531C109.514 499.472 109.903 499.254 110.173 498.921C110.444 498.588 110.577 498.166 110.545 497.739L113.981 322.98L108.106 322.775Z" fill="#E1E1E6" stroke="#263238" stroke-linecap="round" stroke-linejoin="round"/>
<path d="M228.75 316.425L229.254 470.426C229.297 470.799 229.17 471.171 228.899 471.466C228.628 471.762 228.235 471.957 227.8 472.012C227.366 471.957 226.974 471.761 226.706 471.465C226.439 471.17 226.316 470.797 226.364 470.426L222.916 316.552L228.75 316.425Z" fill="#E1E1E6" stroke="#263238" stroke-linecap="round" stroke-linejoin="round"/>
<path d="M106.066 316.425L106.57 470.426C106.613 470.799 106.486 471.171 106.215 471.466C105.944 471.762 105.551 471.957 105.116 472.012C104.682 471.957 104.29 471.761 104.022 471.465C103.755 471.17 103.632 470.797 103.68 470.426L100.232 316.552L106.066 316.425Z" fill="#E1E1E6" stroke="#263238" stroke-linecap="round" stroke-linejoin="round"/>
<path d="M225.503 322.775L226.076 497.66C226.135 498.097 225.992 498.535 225.679 498.884C225.365 499.233 224.905 499.465 224.395 499.531C223.899 499.469 223.448 499.25 223.133 498.918C222.818 498.586 222.662 498.165 222.695 497.739L218.686 322.98L225.503 322.775Z" fill="#E1E1E6" stroke="#263238" stroke-linecap="round" stroke-linejoin="round"/>
<path d="M165.706 336C207.93 336 242.158 328.227 242.158 318.638C242.158 309.049 207.93 301.276 165.706 301.276C123.483 301.276 89.2546 309.049 89.2546 318.638C89.2546 328.227 123.483 336 165.706 336Z" fill="#E1E1E6" stroke="#263238" stroke-linecap="round" stroke-linejoin="round"/>
<path d="M128.477 466.018C128.477 466.018 124.474 471.72 127.343 474.554C130.212 477.388 133.064 476.261 132.772 479.112C132.48 481.963 127.91 491.626 123.907 501.869C119.904 512.112 128.202 522.355 135.933 519.521C143.664 516.687 142.805 488.212 143.939 483.09C145.073 477.969 145.949 477.115 145.657 472.284C145.365 467.452 145.09 462.331 141.362 461.75C137.634 461.17 130.195 464.038 128.477 466.018Z" fill="#E1E1E6" stroke="#263238" stroke-linecap="round" stroke-linejoin="round"/>
<path d="M140.761 511.668C135.607 509.722 127.704 510.115 123.254 510.559C124.749 516.995 130.47 521.519 135.933 519.521C138.218 518.685 139.713 515.646 140.761 511.668Z" fill="#61DCFB" stroke="#263238" stroke-linecap="round" stroke-linejoin="round"/>
<path d="M119.612 453.505C119.612 453.505 127.91 467.452 130.195 471.14C132.48 474.827 140.228 473.701 141.087 468.579C141.946 463.458 137.926 449.237 137.926 449.237L120.746 453.505H119.612Z" fill="#E1E1E6" stroke="#263238" stroke-linecap="round" stroke-linejoin="round"/>
<path d="M99.8549 431.312C99.8549 431.312 97.5528 435.016 98.7038 437.577C99.8549 440.138 102.999 447.53 105.009 451.234C107.019 454.939 116.176 457.21 126.759 455.502C137.342 453.795 143.372 448.947 143.664 444.679C143.956 440.411 141.946 434.726 140.503 427.897C139.06 421.069 135.349 421.359 130.195 421.359C125.041 421.359 104.15 427.334 99.8549 431.312Z" fill="#61DCFB" stroke="#263238" stroke-linecap="round" stroke-linejoin="round"/>
<path d="M130.779 347.66C130.934 340.661 135.005 337.212 135.315 332.415C135.799 326.073 135.272 319.695 133.751 313.516L125.917 302.881C103.377 303.171 87.2274 303.547 86.9697 303.632C86.1107 303.905 85.5265 308.753 84.9596 312.731C84.9596 312.731 75.3902 313.943 77.1082 340.404C77.3488 344.092 87.0041 386.754 87.7084 391.62C92.0035 421.342 101.573 436.228 101.573 436.228C101.573 436.228 102.432 439.933 113.599 439.079C124.766 438.226 135.933 430.834 135.933 430.834C135.933 430.834 130.195 372.977 130.779 347.66Z" fill="#263238" stroke="#263238" stroke-linecap="round" stroke-linejoin="round"/>
<path d="M104.425 313.516C111.966 313.902 119.449 315.046 126.759 316.931C136.5 319.782 153.68 325.467 157.683 325.467C161.686 325.467 160.552 310.665 160.552 307.832C160.552 304.998 109.012 303.273 102.707 303.273C96.4016 303.273 104.425 313.516 104.425 313.516Z" fill="#E1E1E6" stroke="#263238" stroke-linecap="round" stroke-linejoin="round"/>
<path d="M160.552 307.832C160.552 307.832 155.965 310.102 154.247 318.638C152.529 327.174 150.244 331.732 153.68 334.003C157.116 336.273 172.012 337.98 174.296 335.71C176.581 333.439 182.887 322.052 184.038 314.66C185.189 307.268 160.552 307.832 160.552 307.832Z" fill="#61DCFB" stroke="#263238" stroke-linecap="round" stroke-linejoin="round"/>
<path d="M180.018 310.665C177.355 313.702 175.228 317.166 173.73 320.908C172.515 324.826 171.557 328.818 170.861 332.859C176.342 334.352 181.7 336.258 186.89 338.561C196.064 342.538 211.526 345.389 226.404 348.804C241.282 352.218 245.302 355.632 250.456 355.632C255.61 355.632 261.916 351.638 269.939 341.975C277.962 332.312 271.073 311.809 263.067 305.544C255.061 299.279 212.093 294.174 206.372 295.881C200.651 297.589 180.018 310.665 180.018 310.665Z" fill="#263238" stroke="#263238" stroke-linecap="round" stroke-linejoin="round"/>
<path d="M129.903 335.181C129.903 335.181 123.993 398.022 111.932 407.804" stroke="#49606B" stroke-width="0.5" stroke-linecap="round" stroke-linejoin="round"/>
<path d="M125.728 394.829C125.728 394.829 121.038 415.315 108.737 423.459" stroke="#49606B" stroke-width="0.5" stroke-linecap="round" stroke-linejoin="round"/>
<path d="M201.785 323.76C201.785 323.76 183.454 324.903 195.48 332.859C207.506 340.814 229.273 345.953 229.273 345.953" stroke="#49606B" stroke-width="0.5" stroke-linecap="round" stroke-linejoin="round"/>
<path d="M334.863 306.466L328.678 300.934L314.384 270.205C313.706 268.807 312.641 267.63 311.315 266.811C309.988 265.991 308.455 265.564 306.893 265.579H29.2614C27.6968 265.561 26.1596 265.987 24.8298 266.806C23.5001 267.626 22.433 268.805 21.7537 270.205L3.9378 308.48L1 307.405V316.162L1.13744 316.06C1.31244 317.228 1.90924 318.294 2.81651 319.057C3.72378 319.82 4.87954 320.23 6.06815 320.208H330.069C331.321 320.237 332.535 319.781 333.455 318.937C334.375 318.093 334.929 316.927 335 315.684L334.863 306.466Z" fill="#5E5E61" stroke="#263238" stroke-linecap="round" stroke-linejoin="round"/>
<path d="M330.069 312.202H6.06831C5.26596 312.234 4.46864 312.062 3.75113 311.704C3.03361 311.346 2.41941 310.812 1.9661 310.154C1.51279 309.495 1.23521 308.733 1.15942 307.939C1.08362 307.144 1.21208 306.344 1.53274 305.612L21.7538 262.199C22.4298 260.795 23.4961 259.614 24.8266 258.794C26.1571 257.974 27.6961 257.55 29.2616 257.572H306.893C308.456 257.554 309.991 257.979 311.318 258.799C312.646 259.618 313.709 260.798 314.384 262.199L334.605 305.612C334.926 306.344 335.054 307.144 334.978 307.939C334.903 308.733 334.625 309.495 334.172 310.154C333.718 310.812 333.104 311.346 332.387 311.704C331.669 312.062 330.872 312.234 330.069 312.202Z" fill="#E1E1E6" stroke="#263238" stroke-linecap="round" stroke-linejoin="round"/>
<g style="mix-blend-mode:multiply" opacity="0.5">
<path d="M22.4752 283.043C22.4752 283.043 15.1393 288.045 19.7264 289.872C24.3135 291.699 77.0395 290.333 83.4649 288.506C89.8903 286.68 97.209 269.83 97.209 267.098C97.209 264.367 87.9661 262.403 84.5644 262.25C81.1627 262.096 36.2194 264.811 36.2194 264.811L22.4752 283.043Z" fill="#A8A8A8"/>
</g>
<g style="mix-blend-mode:multiply" opacity="0.5">
<path d="M284.748 291.699C295.128 291.699 303.543 288.229 303.543 283.948C303.543 279.668 295.128 276.197 284.748 276.197C274.368 276.197 265.953 279.668 265.953 283.948C265.953 288.229 274.368 291.699 284.748 291.699Z" fill="#A8A8A8"/>
</g>
<g style="mix-blend-mode:multiply" opacity="0.5">
<path d="M165.088 301.276C202.311 301.276 232.486 295.666 232.486 288.745C232.486 281.825 202.311 276.215 165.088 276.215C127.865 276.215 97.6901 281.825 97.6901 288.745C97.6901 295.666 127.865 301.276 165.088 301.276Z" fill="#A8A8A8"/>
</g>
<path d="M271.004 253.458C271.004 253.458 269.767 248.558 265.661 250.197C261.555 251.836 261.967 262.66 262.775 268.788C263.582 274.917 269.148 272.049 269.148 272.049V268.379C269.148 268.379 267.104 270.001 266.073 267.764C265.042 265.528 265.249 254.277 266.279 254.482C267.31 254.687 269.355 258.153 269.355 258.153C269.355 258.153 269.973 257.76 271.004 253.458Z" fill="#61DCFB" stroke="#263238" stroke-linecap="round" stroke-linejoin="round"/>
<path d="M268.049 254.277V281.114C268.049 284.272 275.35 286.833 284.37 286.833C293.389 286.833 300.674 284.272 300.674 281.114V254.277H268.049Z" fill="#61DCFB" stroke="#263238" stroke-linecap="round" stroke-linejoin="round"/>
<path d="M300.674 254.277C300.674 257.009 293.372 259.211 284.37 259.211C275.367 259.211 268.049 257.009 268.049 254.277C268.049 251.546 275.35 249.344 284.37 249.344C293.389 249.344 300.674 251.563 300.674 254.277Z" fill="#E1E1E6" stroke="#263238" stroke-linecap="round" stroke-linejoin="round"/>
<path d="M298.543 254.277C298.543 256.65 292.187 258.562 284.37 258.562C276.553 258.562 270.179 256.65 270.179 254.277C270.179 251.904 276.536 249.992 284.37 249.992C292.204 249.992 298.543 251.904 298.543 254.277Z" fill="#E1E1E6" stroke="#263238" stroke-linecap="round" stroke-linejoin="round"/>
<path d="M273.426 257.009C280.567 259.08 288.155 259.08 295.297 257.009C288.155 254.938 280.567 254.938 273.426 257.009Z" fill="#263238" stroke="#263238" stroke-linecap="round" stroke-linejoin="round"/>
<path d="M20.4479 266.535L20.6541 275.719L82.9322 276.334V265.715L20.4479 266.535Z" fill="#E1E1E6" stroke="#263238" stroke-linecap="round" stroke-linejoin="round"/>
<path d="M82.9323 276.334L91.9862 256.941V251.222L82.52 267.559L82.9323 276.334Z" fill="#E1E1E6" stroke="#263238" stroke-linecap="round" stroke-linejoin="round"/>
<path d="M20.4479 274.9L20.6541 284.102L82.9322 284.716V274.098L20.4479 274.9Z" fill="#E1E1E6" stroke="#263238" stroke-linecap="round" stroke-linejoin="round"/>
<path d="M82.9323 284.716L91.9862 265.306V259.587L82.52 275.924L82.9323 284.716Z" fill="#E1E1E6" stroke="#263238" stroke-linecap="round" stroke-linejoin="round"/>
<path d="M44.5002 243.249C44.5002 243.249 45.9434 240.398 43.8818 239.169C41.8201 237.94 39.5695 240.876 38.3326 241.815C37.0956 242.754 11.205 259.791 10.3804 262.455C9.55574 265.118 10.3804 270.991 15.9296 271.639C21.4788 272.288 26.4095 268.583 28.8835 267.969C31.3574 267.354 32.3195 267.149 32.3195 267.149L49.3794 244.273L44.5002 243.249Z" fill="#61DCFB" stroke="#263238" stroke-linecap="round" stroke-linejoin="round"/>
<path d="M15.9296 271.656C21.4788 272.271 26.4095 268.601 28.8834 267.986C31.3574 267.371 32.3195 267.167 32.3195 267.167L32.9379 266.33L16.9088 263.086C16.0374 262.271 14.917 261.767 13.7251 261.656C12.5332 261.545 11.3379 261.832 10.3288 262.472C9.5557 265.101 10.3804 271.025 15.9296 271.656Z" fill="#E1E1E6" stroke="#263238" stroke-linecap="round" stroke-linejoin="round"/>
<path d="M16.9603 263.121H65.0648C80.0803 263.121 84.5987 262.301 84.5987 262.301L93.8417 243.3C93.8417 243.3 64.6353 245.144 55.6157 244.529C51.8886 244.423 48.1767 244.012 44.5174 243.3L16.9603 263.121Z" fill="#61DCFB" stroke="#263238" stroke-linecap="round" stroke-linejoin="round"/>
<path d="M16.9603 263.121L17.785 266.791C17.785 266.791 56.8355 266.996 67.1093 266.996C77.383 266.996 85.2 267.406 85.2 267.406L84.5815 262.284L16.9603 263.121Z" fill="#E1E1E6" stroke="#263238" stroke-linecap="round" stroke-linejoin="round"/>
<path d="M85.1999 267.354L93.8244 247.739V243.249L84.5814 262.25L85.1999 267.354Z" fill="#E1E1E6" stroke="#263238" stroke-linecap="round" stroke-linejoin="round"/>
<path d="M223.947 290.299H106.177C105.916 290.301 105.657 290.252 105.416 290.154C105.174 290.057 104.954 289.912 104.769 289.73C104.584 289.547 104.437 289.33 104.336 289.091C104.236 288.851 104.184 288.595 104.184 288.336C104.184 288.076 104.236 287.82 104.336 287.58C104.437 287.341 104.584 287.124 104.769 286.941C104.954 286.759 105.174 286.614 105.416 286.517C105.657 286.419 105.916 286.37 106.177 286.372H223.947C224.207 286.37 224.465 286.419 224.706 286.517C224.947 286.615 225.165 286.759 225.349 286.942C225.533 287.125 225.679 287.342 225.777 287.582C225.876 287.821 225.925 288.077 225.923 288.336C225.925 288.594 225.876 288.85 225.777 289.09C225.679 289.329 225.533 289.546 225.349 289.729C225.165 289.912 224.947 290.056 224.706 290.154C224.465 290.252 224.207 290.301 223.947 290.299Z" fill="#161E22" stroke="#263238" stroke-linecap="round" stroke-linejoin="round"/>
<path d="M225.081 286.338H105.301C104.863 286.339 104.441 286.173 104.121 285.875C103.802 285.576 103.609 285.168 103.583 284.733L97.0716 206.971C97.0423 206.731 97.065 206.487 97.1381 206.255C97.2112 206.024 97.3331 205.81 97.4957 205.63C97.6582 205.449 97.8577 205.304 98.0808 205.206C98.3039 205.108 98.5456 205.058 98.7896 205.059H231.61C231.854 205.058 232.095 205.108 232.318 205.206C232.542 205.304 232.741 205.449 232.904 205.63C233.066 205.81 233.188 206.024 233.261 206.255C233.334 206.487 233.357 206.731 233.328 206.971L226.816 284.733C226.79 285.171 226.595 285.582 226.272 285.881C225.949 286.179 225.522 286.343 225.081 286.338Z" fill="#161E22" stroke="#263238" stroke-linecap="round" stroke-linejoin="round"/>
<path d="M293.407 186.298C295.244 184.873 296.535 182.867 297.066 180.613C297.452 178.922 297.411 177.162 296.946 175.491" stroke="#6C7D85" stroke-linecap="round" stroke-linejoin="round"/>
<path d="M279.697 247.176C279.697 247.176 291.122 240.347 287.394 232.545C283.666 224.743 271.055 219.571 271.055 207.415C271.055 196.933 282.274 193.058 289.593 188.858" stroke="#6C7D85" stroke-linecap="round" stroke-linejoin="round"/>
<path d="M290.246 246.954C290.246 246.954 296.619 242.737 296.619 236.045C296.619 231.555 291.792 228.619 285.418 221.397" stroke="#6C7D85" stroke-linecap="round" stroke-linejoin="round"/>
<path d="M281.897 217.027C281.897 217.027 277.72 213.766 280.797 207.637" stroke="#6C7D85" stroke-linecap="round" stroke-linejoin="round"/>
<path fill-rule="evenodd" clip-rule="evenodd" d="M177.213 241.296C182.626 242.933 186.157 245.572 186.157 248.357C186.157 251.133 182.644 253.772 177.265 255.408C178.523 260.841 177.976 265.168 175.538 266.556C174.966 266.882 174.306 267.036 173.577 267.036C171.192 267.036 168.068 265.374 164.911 262.477C161.753 265.391 158.629 267.07 156.244 267.07C155.515 267.07 154.855 266.916 154.292 266.59C151.845 265.202 151.29 260.867 152.539 255.417C147.126 253.78 143.595 251.141 143.595 248.357C143.595 245.58 147.108 242.95 152.504 241.305C151.246 235.872 151.793 231.545 154.231 230.157C154.803 229.832 155.463 229.677 156.192 229.677V229.669C158.577 229.669 161.701 231.331 164.858 234.227C168.016 231.314 171.14 229.635 173.525 229.635V229.643C174.242 229.644 174.898 229.799 175.46 230.123C177.907 231.511 178.462 235.847 177.213 241.296ZM173.517 231.545C171.712 231.55 169.062 232.972 166.238 235.564C167.461 236.823 168.676 238.263 169.847 239.848C171.799 240.054 173.656 240.371 175.356 240.782C175.547 239.917 175.703 239.068 175.798 238.263C176.198 234.99 175.686 232.445 174.506 231.777C174.237 231.631 173.916 231.554 173.517 231.554V231.545ZM163.479 235.572C160.651 232.993 157.987 231.58 156.192 231.58V231.588C155.792 231.588 155.454 231.657 155.194 231.811C154.023 232.488 153.519 235.033 153.927 238.306C154.031 239.103 154.179 239.934 154.378 240.791C156.079 240.371 157.935 240.054 159.896 239.848C161.05 238.263 162.264 236.832 163.479 235.572ZM173.69 246.026C174.141 244.886 174.54 243.747 174.861 242.641C173.725 242.367 172.536 242.144 171.304 241.965C171.73 242.616 172.155 243.284 172.554 243.97C172.962 244.655 173.335 245.34 173.69 246.026ZM168.797 255.04C169.517 254.02 170.211 252.924 170.888 251.767C171.539 250.644 172.137 249.496 172.684 248.348C172.137 247.2 171.539 246.06 170.879 244.938C170.203 243.79 169.5 242.701 168.78 241.682C167.496 241.579 166.186 241.519 164.876 241.519C163.557 241.519 162.247 241.579 160.954 241.69C160.234 242.71 159.54 243.807 158.864 244.963C158.213 246.086 157.606 247.234 157.068 248.382C157.614 249.53 158.213 250.67 158.872 251.793C159.549 252.941 160.252 254.029 160.972 255.049C162.256 255.151 163.566 255.211 164.876 255.211C166.195 255.211 167.505 255.151 168.797 255.04ZM174.888 254.063C174.558 252.949 174.159 251.801 173.69 250.653C173.335 251.338 172.962 252.032 172.562 252.718C172.163 253.412 171.738 254.089 171.313 254.749C172.554 254.569 173.751 254.337 174.888 254.063ZM162.481 257.054C163.28 258.056 164.086 258.973 164.893 259.795C165.691 258.973 166.498 258.056 167.279 257.054C166.49 257.096 165.683 257.114 164.867 257.114C164.06 257.114 163.262 257.088 162.481 257.054ZM154.882 254.072C156.018 254.346 157.207 254.569 158.439 254.749C158.013 254.097 157.597 253.429 157.189 252.744C156.781 252.058 156.408 251.373 156.053 250.687C155.602 251.827 155.203 252.966 154.882 254.072ZM167.262 239.66C166.463 238.657 165.657 237.74 164.85 236.918C164.052 237.74 163.245 238.657 162.464 239.66C163.253 239.617 164.06 239.6 164.876 239.6C165.683 239.6 166.481 239.625 167.262 239.66ZM157.181 243.995C157.58 243.301 158.005 242.624 158.43 241.965C157.189 242.144 155.992 242.376 154.855 242.641C155.185 243.755 155.584 244.903 156.053 246.052C156.408 245.366 156.781 244.681 157.181 243.995ZM145.521 248.357C145.521 249.702 147.507 251.398 150.578 252.692C151.333 253.009 152.149 253.301 153.008 253.566C153.493 251.895 154.135 250.156 154.934 248.374C154.127 246.583 153.476 244.835 152.982 243.156C152.14 243.421 151.325 243.704 150.578 244.021C147.507 245.306 145.521 247.011 145.521 248.357ZM153.953 258.45C153.554 261.723 154.066 264.268 155.246 264.937C155.506 265.082 155.836 265.159 156.226 265.168C158.031 265.168 160.686 263.746 163.514 261.149C162.291 259.89 161.076 258.45 159.905 256.865C157.953 256.659 156.096 256.342 154.396 255.931C154.205 256.796 154.049 257.645 153.953 258.45ZM174.558 264.902C175.729 264.225 176.232 261.681 175.824 258.407C175.729 257.611 175.573 256.779 175.373 255.914C173.673 256.334 171.816 256.651 169.856 256.856C168.702 258.442 167.487 259.873 166.273 261.132C169.101 263.711 171.764 265.125 173.56 265.125C173.959 265.125 174.298 265.056 174.558 264.902ZM176.761 253.558C177.603 253.292 178.418 253.009 179.165 252.692C182.236 251.407 184.222 249.702 184.231 248.357C184.231 247.011 182.244 245.315 179.173 244.021C178.41 243.704 177.594 243.413 176.735 243.147C176.25 244.818 175.608 246.557 174.809 248.339C175.616 250.13 176.267 251.878 176.761 253.558ZM168.832 248.357C168.832 250.519 167.057 252.272 164.867 252.272C162.677 252.272 160.902 250.519 160.902 248.357C160.902 246.194 162.677 244.441 164.867 244.441C167.057 244.441 168.832 246.194 168.832 248.357Z" fill="#61DCFB"/>
</svg>
