<svg width="110" height="31" viewBox="0 0 110 31" fill="none" xmlns="http://www.w3.org/2000/svg">
<path d="M5.5 24H0.96875V7.09375H5.5V24ZM0.703125 2.71875C0.703125 2.04167 0.927083 1.48438 1.375 1.04688C1.83333 0.609375 2.45312 0.390625 3.23438 0.390625C4.00521 0.390625 4.61979 0.609375 5.07812 1.04688C5.53646 1.48438 5.76562 2.04167 5.76562 2.71875C5.76562 3.40625 5.53125 3.96875 5.0625 4.40625C4.60417 4.84375 3.99479 5.0625 3.23438 5.0625C2.47396 5.0625 1.85938 4.84375 1.39062 4.40625C0.932292 3.96875 0.703125 3.40625 0.703125 2.71875Z" fill="#E1E1E6"/>
<path d="M8.57812 15.4219C8.57812 12.8281 9.19271 10.7396 10.4219 9.15625C11.6615 7.57292 13.3281 6.78125 15.4219 6.78125C17.276 6.78125 18.7188 7.41667 19.75 8.6875L19.9375 7.09375H24.0312V23.4375C24.0312 24.9167 23.6927 26.2031 23.0156 27.2969C22.349 28.3906 21.4062 29.224 20.1875 29.7969C18.9688 30.3698 17.5417 30.6562 15.9062 30.6562C14.6667 30.6562 13.4583 30.4062 12.2812 29.9062C11.1042 29.4167 10.2135 28.7812 9.60938 28L11.6094 25.25C12.7344 26.5104 14.099 27.1406 15.7031 27.1406C16.901 27.1406 17.8333 26.8177 18.5 26.1719C19.1667 25.5365 19.5 24.6302 19.5 23.4531V22.5469C18.4583 23.724 17.0885 24.3125 15.3906 24.3125C13.3594 24.3125 11.7135 23.5208 10.4531 21.9375C9.20312 20.3438 8.57812 18.2344 8.57812 15.6094V15.4219ZM13.0938 15.75C13.0938 17.2812 13.401 18.4844 14.0156 19.3594C14.6302 20.224 15.474 20.6562 16.5469 20.6562C17.9219 20.6562 18.9062 20.1406 19.5 19.1094V12C18.8958 10.9688 17.9219 10.4531 16.5781 10.4531C15.4948 10.4531 14.6406 10.8958 14.0156 11.7812C13.401 12.6667 13.0938 13.9896 13.0938 15.75Z" fill="#E1E1E6"/>
<path d="M27.75 21.7812C27.75 21.0625 27.9896 20.4792 28.4688 20.0312C28.9583 19.5833 29.5677 19.3594 30.2969 19.3594C31.0365 19.3594 31.6458 19.5833 32.125 20.0312C32.6146 20.4792 32.8594 21.0625 32.8594 21.7812C32.8594 22.4896 32.6198 23.0677 32.1406 23.5156C31.6615 23.9531 31.0469 24.1719 30.2969 24.1719C29.5573 24.1719 28.9479 23.9531 28.4688 23.5156C27.9896 23.0677 27.75 22.4896 27.75 21.7812Z" fill="#E1E1E6"/>
<path d="M40.9844 7.09375L41.125 9.04688C42.3333 7.53646 43.9531 6.78125 45.9844 6.78125C47.776 6.78125 49.1094 7.30729 49.9844 8.35938C50.8594 9.41146 51.3073 10.9844 51.3281 13.0781V24H46.8125V13.1875C46.8125 12.2292 46.6042 11.5365 46.1875 11.1094C45.7708 10.6719 45.0781 10.4531 44.1094 10.4531C42.8385 10.4531 41.8854 10.9948 41.25 12.0781V24H36.7344V7.09375H40.9844Z" fill="#E1E1E6"/>
<path d="M62.5469 24.3125C60.0677 24.3125 58.0469 23.5521 56.4844 22.0312C54.9323 20.5104 54.1562 18.4844 54.1562 15.9531V15.5156C54.1562 13.8177 54.4844 12.3021 55.1406 10.9688C55.7969 9.625 56.724 8.59375 57.9219 7.875C59.1302 7.14583 60.5052 6.78125 62.0469 6.78125C64.3594 6.78125 66.1771 7.51042 67.5 8.96875C68.8333 10.4271 69.5 12.4948 69.5 15.1719V17.0156H58.7344C58.8802 18.1198 59.3177 19.0052 60.0469 19.6719C60.7865 20.3385 61.7188 20.6719 62.8438 20.6719C64.5833 20.6719 65.9427 20.0417 66.9219 18.7812L69.1406 21.2656C68.4635 22.224 67.5469 22.974 66.3906 23.5156C65.2344 24.0469 63.9531 24.3125 62.5469 24.3125ZM62.0312 10.4375C61.1354 10.4375 60.4062 10.7396 59.8438 11.3438C59.2917 11.9479 58.9375 12.8125 58.7812 13.9375H65.0625V13.5781C65.0417 12.5781 64.7708 11.8073 64.25 11.2656C63.7292 10.7135 62.9896 10.4375 62.0312 10.4375Z" fill="#E1E1E6"/>
<path d="M86.7812 17.8594L89 7.09375H93.3594L89.0469 24H85.2656L82.0625 13.3594L78.8594 24H75.0938L70.7812 7.09375H75.1406L77.3438 17.8438L80.4375 7.09375H83.7031L86.7812 17.8594Z" fill="#E1E1E6"/>
<path d="M104.766 19.3281C104.766 18.776 104.49 18.3438 103.938 18.0312C103.396 17.7083 102.521 17.4219 101.312 17.1719C97.2917 16.3281 95.2812 14.6198 95.2812 12.0469C95.2812 10.5469 95.901 9.29688 97.1406 8.29688C98.3906 7.28646 100.021 6.78125 102.031 6.78125C104.177 6.78125 105.891 7.28646 107.172 8.29688C108.464 9.30729 109.109 10.6198 109.109 12.2344H104.594C104.594 11.5885 104.385 11.0573 103.969 10.6406C103.552 10.2135 102.901 10 102.016 10C101.255 10 100.667 10.1719 100.25 10.5156C99.8333 10.8594 99.625 11.2969 99.625 11.8281C99.625 12.3281 99.8594 12.7344 100.328 13.0469C100.807 13.349 101.609 13.6146 102.734 13.8438C103.859 14.0625 104.807 14.3125 105.578 14.5938C107.964 15.4688 109.156 16.9844 109.156 19.1406C109.156 20.6823 108.495 21.9323 107.172 22.8906C105.849 23.8385 104.141 24.3125 102.047 24.3125C100.63 24.3125 99.3698 24.0625 98.2656 23.5625C97.1719 23.0521 96.3125 22.3594 95.6875 21.4844C95.0625 20.599 94.75 19.6458 94.75 18.625H99.0312C99.0729 19.4271 99.3698 20.0417 99.9219 20.4688C100.474 20.8958 101.214 21.1094 102.141 21.1094C103.005 21.1094 103.656 20.9479 104.094 20.625C104.542 20.2917 104.766 19.8594 104.766 19.3281Z" fill="#E1E1E6"/>
</svg>
